# xmcd
#
# Track frame offsets: 
#        183
#        21623
#        42543
#        73278
#        86880
#        107010
#        136918
#        154740
#        168133
#        198830
#        211833
#        240920
#        260038
#        281658
#
# Disc length: 3972 seconds
#
# Revision: 0
# Processed by: cddbd v1.5.1PL2 Copyright (c) Steve Scherf et al.
# Submitted via: ExactAudioCopy v0.95b3
#
DISCID=cb0f820e
DTITLE=George Benson and Jack Mac Duff - Shadow Dancers
DYEAR=1988
DGENRE=Blues
TTITLE0=Shadow Dancers
TTITLE1=The Sweet Alice Blues
TTITLE2=I Don't Know
TTITLE3=Just Another Sunday
TTITLE4=Will You Still Be Mine
TTITLE5=Easy Living
TTITLE6=Rock-a-Bye
TTITLE7=Hot Barbecue
TTITLE8=The Party's Over
TTITLE9=Briar Patch
TTITLE10=Hippy Dip
TTITLE11=601 1/2 no Poplar
TTITLE12=Cry Me A River
TTITLE13=The Thre Day Thang
EXTD=
EXTT0=
EXTT1=
EXTT2=
EXTT3=
EXTT4=
EXTT5=
EXTT6=
EXTT7=
EXTT8=
EXTT9=
EXTT10=
EXTT11=
EXTT12=
EXTT13=
PLAYORDER=
